<?xml version="1.0" encoding="UTF-8"?>
<!DOCTYPE svg PUBLIC "-//W3C//DTD SVG 1.1//EN" "http://www.w3.org/Graphics/SVG/1.1/DTD/svg11.dtd">
<svg xmlns="http://www.w3.org/2000/svg" version="1.1" width="512px" height="512px" style="shape-rendering:geometricPrecision; text-rendering:geometricPrecision; image-rendering:optimizeQuality; fill-rule:evenodd; clip-rule:evenodd" xmlns:xlink="http://www.w3.org/1999/xlink">
<g><path style="opacity:0.999" fill="#00275e" d="M 101.5,-0.5 C 203.833,-0.5 306.167,-0.5 408.5,-0.5C 465.833,10.8333 500.167,45.1667 511.5,102.5C 511.5,204.5 511.5,306.5 511.5,408.5C 500.167,465.833 465.833,500.167 408.5,511.5C 306.5,511.5 204.5,511.5 102.5,511.5C 45.1667,500.167 10.8333,465.833 -0.5,408.5C -0.5,306.5 -0.5,204.5 -0.5,102.5C 10.7106,45.6226 44.7106,11.2893 101.5,-0.5 Z"/></g>
<g><path style="opacity:1" fill="#f6f6f8" d="M 132.5,208.5 C 133.167,208.5 133.5,208.833 133.5,209.5C 133.56,210.043 133.893,210.376 134.5,210.5C 135.499,197.851 135.832,185.184 135.5,172.5C 137.749,168.748 141.082,167.581 145.5,169C 146.211,170.255 147.044,171.421 148,172.5C 148.667,209.5 148.667,246.5 148,283.5C 145.487,287.212 141.987,288.378 137.5,287C 136.299,286.097 135.465,284.931 135,283.5C 134.667,280.833 134.333,278.167 134,275.5C 122.243,286.414 108.41,290.247 92.5,287C 67.8471,278.675 56.3471,261.508 58,235.5C 65.2208,208.637 82.7208,196.137 110.5,198C 118.502,200.059 125.836,203.559 132.5,208.5 Z"/></g>
<g><path style="opacity:1" fill="#00004c" d="M 134.5,172.5 C 134.829,185.011 134.495,197.345 133.5,209.5C 133.5,208.833 133.167,208.5 132.5,208.5C 133.148,196.402 133.814,184.402 134.5,172.5 Z"/></g>
<g><path style="opacity:1" fill="#98a0b0" d="M 134.5,172.5 C 134.833,172.5 135.167,172.5 135.5,172.5C 135.832,185.184 135.499,197.851 134.5,210.5C 133.893,210.376 133.56,210.043 133.5,209.5C 134.495,197.345 134.829,185.011 134.5,172.5 Z"/></g>
<g><path style="opacity:1" fill="#32e5c7" d="M 180.5,194.5 C 189.432,194.379 193.266,198.712 192,207.5C 189.367,212.732 185.201,214.565 179.5,213C 173.043,209.108 171.876,203.942 176,197.5C 177.652,196.601 179.152,195.601 180.5,194.5 Z"/></g>
<g><path style="opacity:1" fill="#32e5c7" d="M 331.5,194.5 C 341.155,195.308 344.655,200.308 342,209.5C 336.036,215.032 330.369,214.698 325,208.5C 323.17,201.832 325.337,197.165 331.5,194.5 Z"/></g>
<g><path style="opacity:1" fill="#f6f7f8" d="M 249.5,197.5 C 265.837,197.333 282.17,197.5 298.5,198C 303.342,201.694 303.675,205.694 299.5,210C 296.118,210.176 292.785,210.676 289.5,211.5C 301.436,223.903 305.269,238.57 301,255.5C 298.797,260.584 296.297,265.584 293.5,270.5C 307.678,293.477 305.011,314.31 285.5,333C 274.241,341.456 261.575,344.456 247.5,342C 228.254,336.756 216.588,324.423 212.5,305C 212.793,298.378 216.126,296.044 222.5,298C 224.049,299.214 225.215,300.714 226,302.5C 229.564,319.404 239.897,328.404 257,329.5C 280.44,326.387 290.774,313.054 288,289.5C 287.356,285.86 285.689,282.86 283,280.5C 268.428,288.434 253.262,289.601 237.5,284C 213.268,268.969 206.435,248.136 217,221.5C 224.448,208.714 235.281,200.714 249.5,197.5 Z"/></g>
<g><path style="opacity:1" fill="#f6f7f8" d="M 400.5,197.5 C 428.205,196.1 445.705,208.767 453,235.5C 454.61,261.541 443.11,278.708 418.5,287C 391.627,290.651 373.46,279.817 364,254.5C 359.747,231.512 367.58,214.012 387.5,202C 391.846,200.164 396.179,198.664 400.5,197.5 Z"/></g>
<g><path style="opacity:1" fill="#01265e" d="M 250.5,211.5 C 277.049,210.548 289.549,223.214 288,249.5C 283.092,267.373 271.259,275.54 252.5,274C 237.749,271.249 228.915,262.416 226,247.5C 224.565,228.796 232.732,216.796 250.5,211.5 Z"/></g>
<g><path style="opacity:1" fill="#01265e" d="M 400.5,211.5 C 427.039,209.875 439.872,222.209 439,248.5C 434.413,267.087 422.579,275.587 403.5,274C 383.182,269.225 374.348,256.391 377,235.5C 380.349,222.985 388.182,214.985 400.5,211.5 Z"/></g>
<g><path style="opacity:1" fill="#01265e" d="M 93.5,211.5 C 120.94,208.925 134.44,221.259 134,248.5C 128.918,267.798 116.418,276.298 96.5,274C 80.3071,269.474 71.9738,258.807 71.5,242C 71.1323,232.116 74.799,224.116 82.5,218C 86.2622,215.794 89.9289,213.627 93.5,211.5 Z"/></g>
<g><path style="opacity:1" fill="#f8f9fa" d="M 179.5,223.5 C 183.287,222.814 186.454,223.814 189,226.5C 189.667,245.833 189.667,265.167 189,284.5C 185,288.5 181,288.5 177,284.5C 176.333,265.5 176.333,246.5 177,227.5C 177.662,226.016 178.496,224.683 179.5,223.5 Z"/></g>
<g><path style="opacity:1" fill="#fafafb" d="M 330.5,223.5 C 334.684,222.704 337.85,224.037 340,227.5C 340.667,246.5 340.667,265.5 340,284.5C 336.476,288.074 332.642,288.407 328.5,285.5C 327.334,265.842 327.167,246.175 328,226.5C 329.045,225.627 329.878,224.627 330.5,223.5 Z"/></g>
</svg>
