<?xml version="1.0" encoding="UTF-8"?>
<svg width="260px" height="120px" viewBox="0 0 753 348" version="1.1" xmlns="http://www.w3.org/2000/svg" xmlns:xlink="http://www.w3.org/1999/xlink">
    <!-- Generator: Sketch 47.1 (45422) - http://www.bohemiancoding.com/sketch -->
    <title>logo-digio</title>
    <desc>Created with Sketch.</desc>
    <defs></defs>
    <g id="Page-1" stroke="none" stroke-width="1" fill="none" fill-rule="evenodd">
        <g id="logo-digio" fill-rule="nonzero">
            <path d="M530.52,89.7599972 C530.520001,94.4719752 528.647491,98.9908168 525.314681,102.32175 C521.981872,105.652684 517.461977,107.52265 512.75,107.519997 C502.942727,107.514475 494.99632,99.5606087 495.000001,89.7533343 C495.003682,79.9460599 502.956057,71.9981607 512.763331,72.0000003 C522.570606,72.00184 530.519998,79.9527221 530.52,89.7599972 Z M265.72,71.86 C265.72,82.2760904 257.27609,90.72 246.86,90.72 C236.44391,90.72 228,82.2760904 228,71.86 C228,61.4439096 236.44391,53 246.86,53 C257.27609,53 265.72,61.4439096 265.72,71.86 Z" id="Shape" fill="#00A0E6"></path>
            <path d="M165.032574,0.000678127012 C161.65185,-0.0317013518 158.400165,1.2969839 156.009522,3.68762634 C153.61888,6.07826878 152.290195,9.32995422 152.322574,12.7106781 L152.322574,84.7106781 C126.956717,59.0274133 88.5898357,51.2096006 55.1969609,64.919915 C21.8040862,78.6302295 7.10542736e-15,111.1528 0,147.250678 C-7.10542736e-15,183.348556 21.8040862,215.871127 55.1969609,229.581441 C88.5898357,243.291756 126.956717,235.473943 152.322574,209.790678 L152.322574,223.490678 C152.322574,230.512979 158.015274,236.205678 165.037574,236.205678 C172.059875,236.205678 177.752574,230.512979 177.752574,223.490678 L177.752574,12.7106781 C177.784997,9.32820269 176.454947,6.07496693 174.062125,3.68402649 C171.669304,1.29308606 168.415023,-0.0344051465 165.032574,0.000678127012 L165.032574,0.000678127012 Z M88.7625742,210.780678 C53.6593555,210.780678 25.2025742,182.323897 25.2025742,147.220678 C25.2025742,112.117459 53.6593555,83.6606781 88.7625742,83.6606781 C123.865793,83.6606781 152.322574,112.117459 152.322574,147.220678 C152.322574,183.830678 122.832574,210.780678 88.7625742,210.780678 Z M247.710578,110.00068 C251.092127,109.965551 254.345415,111.293353 256.73666,113.684598 C259.127905,116.075842 260.455707,119.329131 260.420578,122.71068 L260.420578,224.04068 C260.420578,231.060219 254.730117,236.75068 247.710578,236.75068 C240.691039,236.75068 235.000578,231.060219 235.000578,224.04068 L235.000578,122.71068 C234.968199,119.329956 236.296884,116.07827 238.687526,113.687628 C241.078169,111.296985 244.329854,109.9683 247.710578,110.00068 Z M512.030108,126.030963 L511.970108,126.000963 C515.165011,125.960259 518.240965,127.211465 520.500285,129.470786 C522.759606,131.730106 524.010813,134.806061 523.970108,138.000963 L523.970108,233.480963 C524.287399,237.959717 522.077853,242.240912 518.243418,244.57694 C514.408984,246.912968 509.591233,246.912968 505.756798,244.57694 C501.922364,242.240912 499.712817,237.959717 500.030108,233.480963 L500.030108,138.030963 C499.989404,134.836061 501.240611,131.760106 503.499931,129.500786 C505.759252,127.241465 508.835206,125.990259 512.030108,126.030963 Z M650.8,78.0002906 C604.514317,78.0058133 566.996318,115.531274 567,161.816956 C567.003682,208.102639 604.52765,245.622131 650.813333,245.62029 C697.099016,245.618449 734.619999,208.095974 734.62,161.810291 C734.67596,139.563654 725.8626,118.212206 710.130865,102.482347 C694.399129,86.7524886 673.046629,77.9416762 650.8,78.0002906 L650.8,78.0002906 Z M650.8,221.680291 C617.734712,221.680291 590.93,194.875579 590.93,161.810291 C590.93,128.745003 617.734712,101.940291 650.8,101.940291 C683.865288,101.940291 710.67,128.745003 710.67,161.810291 C710.658961,194.871005 683.860714,221.669252 650.8,221.680291 L650.8,221.680291 Z M453.490884,90.000963 C453.531588,86.8060606 452.280381,83.7301065 450.021061,81.470786 C447.76174,79.2114655 444.685786,77.9602586 441.490884,78.000963 L371.300884,78.000963 L370.970884,78.000963 L369.670884,78.000963 C333.429588,78.0635615 301.334175,101.41349 290.119352,135.87598 C278.90453,170.33847 291.111272,208.105256 320.374924,229.484548 C349.638575,250.863841 389.328786,251.011673 418.750884,229.850963 C432.808266,249.996996 433.130044,276.686558 419.562451,297.165646 C405.994859,317.644735 381.292477,327.755551 357.259706,322.666493 C333.226934,317.577434 314.743063,298.321714 310.640884,274.100963 C309.291609,267.890815 303.334679,263.80943 297.056295,264.793494 C290.777912,265.777558 286.355393,271.485803 286.970884,277.810963 C293.733933,319.202954 330.119754,349.177309 372.040884,347.890963 C415.710884,346.700963 451.640884,311.310963 453.420884,267.670963 C454.295928,247.976105 448.182662,228.605622 436.160884,212.980963 C461.91581,179.318797 458.607685,131.753798 428.440884,101.980963 L441.510884,101.980963 C444.705786,102.021667 447.78174,100.77046 450.041061,98.5111399 C452.300381,96.2518194 453.551588,93.1758654 453.510884,89.980963 L453.490884,90.000963 Z M429.510884,161.820963 C429.510884,194.886251 402.706172,221.690963 369.640884,221.690963 C336.575596,221.690963 309.770884,194.886251 309.770884,161.820963 C309.770884,128.755675 336.575596,101.950963 369.640884,101.950963 C402.701598,101.962002 429.499845,128.760248 429.510884,161.820963 L429.510884,161.820963 Z" id="Shape" fill="#23292E"></path>
        </g>
    </g>
</svg>